<svg id="visual" transform="rotate(0)" viewBox="0 0 900 600" width="900" height="600" xmlns="http://www.w3.org/2000/svg" xmlns:xlink="http://www.w3.org/1999/xlink" version="1.1"><path d="M0 199L13.7 200C27.3 201 54.7 203 82 209C109.3 215 136.7 225 163.8 219C191 213 218 191 245.2 173C272.3 155 299.7 141 327 158C354.3 175 381.7 223 409 228C436.3 233 463.7 195 491 186C518.3 177 545.7 197 573 192C600.3 187 627.7 157 654.8 139C682 121 709 115 736.2 130C763.3 145 790.7 181 818 185C845.3 189 872.7 161 886.3 147L900 133L900 0L886.3 0C872.7 0 845.3 0 818 0C790.7 0 763.3 0 736.2 0C709 0 682 0 654.8 0C627.7 0 600.3 0 573 0C545.7 0 518.3 0 491 0C463.7 0 436.3 0 409 0C381.7 0 354.3 0 327 0C299.7 0 272.3 0 245.2 0C218 0 191 0 163.8 0C136.7 0 109.3 0 82 0C54.7 0 27.3 0 13.7 0L0 0Z" fill="#18181b"></path><path d="M0 313L13.7 312C27.3 311 54.7 309 82 309C109.3 309 136.7 311 163.8 296C191 281 218 249 245.2 239C272.3 229 299.7 241 327 265C354.3 289 381.7 325 409 320C436.3 315 463.7 269 491 252C518.3 235 545.7 247 573 253C600.3 259 627.7 259 654.8 248C682 237 709 215 736.2 225C763.3 235 790.7 277 818 285C845.3 293 872.7 267 886.3 254L900 241L900 131L886.3 145C872.7 159 845.3 187 818 183C790.7 179 763.3 143 736.2 128C709 113 682 119 654.8 137C627.7 155 600.3 185 573 190C545.7 195 518.3 175 491 184C463.7 193 436.3 231 409 226C381.7 221 354.3 173 327 156C299.7 139 272.3 153 245.2 171C218 189 191 211 163.8 217C136.7 223 109.3 213 82 207C54.7 201 27.3 199 13.7 198L0 197Z" fill="#49494c"></path><path d="M0 421L13.7 430C27.3 439 54.7 457 82 461C109.3 465 136.7 455 163.8 436C191 417 218 389 245.2 393C272.3 397 299.7 433 327 447C354.3 461 381.7 453 409 435C436.3 417 463.7 389 491 391C518.3 393 545.7 425 573 446C600.3 467 627.7 477 654.8 475C682 473 709 459 736.2 456C763.3 453 790.7 461 818 457C845.3 453 872.7 437 886.3 429L900 421L900 239L886.3 252C872.7 265 845.3 291 818 283C790.7 275 763.3 233 736.2 223C709 213 682 235 654.8 246C627.7 257 600.3 257 573 251C545.7 245 518.3 233 491 250C463.7 267 436.3 313 409 318C381.7 323 354.3 287 327 263C299.7 239 272.3 227 245.2 237C218 247 191 279 163.8 294C136.7 309 109.3 307 82 307C54.7 307 27.3 309 13.7 310L0 311Z" fill="#818183"></path><path d="M0 499L13.7 507C27.3 515 54.7 531 82 528C109.3 525 136.7 503 163.8 488C191 473 218 465 245.2 471C272.3 477 299.7 497 327 508C354.3 519 381.7 521 409 509C436.3 497 463.7 471 491 473C518.3 475 545.7 505 573 519C600.3 533 627.7 531 654.8 528C682 525 709 521 736.2 521C763.3 521 790.7 525 818 526C845.3 527 872.7 525 886.3 524L900 523L900 419L886.3 427C872.7 435 845.3 451 818 455C790.7 459 763.3 451 736.2 454C709 457 682 471 654.8 473C627.7 475 600.3 465 573 444C545.7 423 518.3 391 491 389C463.7 387 436.3 415 409 433C381.7 451 354.3 459 327 445C299.7 431 272.3 395 245.2 391C218 387 191 415 163.8 434C136.7 453 109.3 463 82 459C54.7 455 27.3 437 13.7 428L0 419Z" fill="#bebebf"></path><path d="M0 601L13.7 601C27.3 601 54.7 601 82 601C109.3 601 136.7 601 163.8 601C191 601 218 601 245.2 601C272.3 601 299.7 601 327 601C354.3 601 381.7 601 409 601C436.3 601 463.7 601 491 601C518.3 601 545.7 601 573 601C600.3 601 627.7 601 654.8 601C682 601 709 601 736.2 601C763.3 601 790.7 601 818 601C845.3 601 872.7 601 886.3 601L900 601L900 521L886.3 522C872.7 523 845.3 525 818 524C790.7 523 763.3 519 736.2 519C709 519 682 523 654.8 526C627.7 529 600.3 531 573 517C545.7 503 518.3 473 491 471C463.7 469 436.3 495 409 507C381.7 519 354.3 517 327 506C299.7 495 272.3 475 245.2 469C218 463 191 471 163.8 486C136.7 501 109.3 523 82 526C54.7 529 27.3 513 13.7 505L0 497Z" fill="#ffffff"></path></svg>