<svg id="visual" viewBox="0 0 960 540" width="960" height="540" xmlns="http://www.w3.org/2000/svg" xmlns:xlink="http://www.w3.org/1999/xlink" version="1.1"><path d="M0 104L14.5 105.7C29 107.3 58 110.7 87.2 103.3C116.3 96 145.7 78 174.8 82.5C204 87 233 114 262 118.5C291 123 320 105 349 97C378 89 407 91 436.2 99.2C465.3 107.3 494.7 121.7 523.8 119.8C553 118 582 100 611 88.3C640 76.7 669 71.3 698 68.7C727 66 756 66 785.2 66C814.3 66 843.7 66 872.8 84.8C902 103.7 931 141.3 945.5 160.2L960 179L960 0L945.5 0C931 0 902 0 872.8 0C843.7 0 814.3 0 785.2 0C756 0 727 0 698 0C669 0 640 0 611 0C582 0 553 0 523.8 0C494.7 0 465.3 0 436.2 0C407 0 378 0 349 0C320 0 291 0 262 0C233 0 204 0 174.8 0C145.7 0 116.3 0 87.2 0C58 0 29 0 14.5 0L0 0Z" fill="#ffffff"></path><path d="M0 217L14.5 208C29 199 58 181 87.2 166.7C116.3 152.3 145.7 141.7 174.8 146.2C204 150.7 233 170.3 262 183.8C291 197.3 320 204.7 349 204.7C378 204.7 407 197.3 436.2 196.3C465.3 195.3 494.7 200.7 523.8 200.7C553 200.7 582 195.3 611 185.5C640 175.7 669 161.3 698 156C727 150.7 756 154.3 785.2 161.5C814.3 168.7 843.7 179.3 872.8 191C902 202.7 931 215.3 945.5 221.7L960 228L960 177L945.5 158.2C931 139.3 902 101.7 872.8 82.8C843.7 64 814.3 64 785.2 64C756 64 727 64 698 66.7C669 69.3 640 74.7 611 86.3C582 98 553 116 523.8 117.8C494.7 119.7 465.3 105.3 436.2 97.2C407 89 378 87 349 95C320 103 291 121 262 116.5C233 112 204 85 174.8 80.5C145.7 76 116.3 94 87.2 101.3C58 108.7 29 105.3 14.5 103.7L0 102Z" fill="#a9a9ab"></path><path d="M0 417L14.5 413.3C29 409.7 58 402.3 87.2 393.3C116.3 384.3 145.7 373.7 174.8 377.3C204 381 233 399 262 390C291 381 320 345 349 329.7C378 314.3 407 319.7 436.2 320.5C465.3 321.3 494.7 317.7 523.8 321.3C553 325 582 336 611 348.7C640 361.3 669 375.7 698 366.7C727 357.7 756 325.3 785.2 328.8C814.3 332.3 843.7 371.7 872.8 397.7C902 423.7 931 436.3 945.5 442.7L960 449L960 226L945.5 219.7C931 213.3 902 200.7 872.8 189C843.7 177.3 814.3 166.7 785.2 159.5C756 152.3 727 148.7 698 154C669 159.3 640 173.7 611 183.5C582 193.3 553 198.7 523.8 198.7C494.7 198.7 465.3 193.3 436.2 194.3C407 195.3 378 202.7 349 202.7C320 202.7 291 195.3 262 181.8C233 168.3 204 148.7 174.8 144.2C145.7 139.7 116.3 150.3 87.2 164.7C58 179 29 197 14.5 206L0 215Z" fill="#5b5b5e"></path><path d="M0 541L14.5 541C29 541 58 541 87.2 541C116.3 541 145.7 541 174.8 541C204 541 233 541 262 541C291 541 320 541 349 541C378 541 407 541 436.2 541C465.3 541 494.7 541 523.8 541C553 541 582 541 611 541C640 541 669 541 698 541C727 541 756 541 785.2 541C814.3 541 843.7 541 872.8 541C902 541 931 541 945.5 541L960 541L960 447L945.5 440.7C931 434.3 902 421.7 872.8 395.7C843.7 369.7 814.3 330.3 785.2 326.8C756 323.3 727 355.7 698 364.7C669 373.7 640 359.3 611 346.7C582 334 553 323 523.8 319.3C494.7 315.7 465.3 319.3 436.2 318.5C407 317.7 378 312.3 349 327.7C320 343 291 379 262 388C233 397 204 379 174.8 375.3C145.7 371.7 116.3 382.3 87.2 391.3C58 400.3 29 407.7 14.5 411.3L0 415Z" fill="#18181b"></path></svg>