
<svg id="visual" viewBox="0 0 900 600" width="900" height="600" xmlns="http://www.w3.org/2000/svg" xmlns:xlink="http://www.w3.org/1999/xlink" version="1.1"><path d="M0 145L18.8 140C37.7 135 75.3 125 112.8 114C150.3 103 187.7 91 225.2 97C262.7 103 300.3 127 337.8 127C375.3 127 412.7 103 450.2 82C487.7 61 525.3 43 562.8 46C600.3 49 637.7 73 675.2 91C712.7 109 750.3 121 787.8 126C825.3 131 862.7 129 881.3 128L900 127L900 0L881.3 0C862.7 0 825.3 0 787.8 0C750.3 0 712.7 0 675.2 0C637.7 0 600.3 0 562.8 0C525.3 0 487.7 0 450.2 0C412.7 0 375.3 0 337.8 0C300.3 0 262.7 0 225.2 0C187.7 0 150.3 0 112.8 0C75.3 0 37.7 0 18.8 0L0 0Z" fill="#ffffff"></path><path d="M0 307L18.8 282C37.7 257 75.3 207 112.8 209C150.3 211 187.7 265 225.2 271C262.7 277 300.3 235 337.8 208C375.3 181 412.7 169 450.2 171C487.7 173 525.3 189 562.8 222C600.3 255 637.7 305 675.2 299C712.7 293 750.3 231 787.8 235C825.3 239 862.7 309 881.3 344L900 379L900 125L881.3 126C862.7 127 825.3 129 787.8 124C750.3 119 712.7 107 675.2 89C637.7 71 600.3 47 562.8 44C525.3 41 487.7 59 450.2 80C412.7 101 375.3 125 337.8 125C300.3 125 262.7 101 225.2 95C187.7 89 150.3 101 112.8 112C75.3 123 37.7 133 18.8 138L0 143Z" fill="#bebebf"></path><path d="M0 379L18.8 361C37.7 343 75.3 307 112.8 314C150.3 321 187.7 371 225.2 368C262.7 365 300.3 309 337.8 275C375.3 241 412.7 229 450.2 240C487.7 251 525.3 285 562.8 310C600.3 335 637.7 351 675.2 336C712.7 321 750.3 275 787.8 296C825.3 317 862.7 405 881.3 449L900 493L900 377L881.3 342C862.7 307 825.3 237 787.8 233C750.3 229 712.7 291 675.2 297C637.7 303 600.3 253 562.8 220C525.3 187 487.7 171 450.2 169C412.7 167 375.3 179 337.8 206C300.3 233 262.7 275 225.2 269C187.7 263 150.3 209 112.8 207C75.3 205 37.7 255 18.8 280L0 305Z" fill="#818183"></path><path d="M0 421L18.8 417C37.7 413 75.3 405 112.8 415C150.3 425 187.7 453 225.2 446C262.7 439 300.3 397 337.8 356C375.3 315 412.7 275 450.2 288C487.7 301 525.3 367 562.8 395C600.3 423 637.7 413 675.2 384C712.7 355 750.3 307 787.8 328C825.3 349 862.7 439 881.3 484L900 529L900 491L881.3 447C862.7 403 825.3 315 787.8 294C750.3 273 712.7 319 675.2 334C637.7 349 600.3 333 562.8 308C525.3 283 487.7 249 450.2 238C412.7 227 375.3 239 337.8 273C300.3 307 262.7 363 225.2 366C187.7 369 150.3 319 112.8 312C75.3 305 37.7 341 18.8 359L0 377Z" fill="#49494c"></path><path d="M0 601L18.8 601C37.7 601 75.3 601 112.8 601C150.3 601 187.7 601 225.2 601C262.7 601 300.3 601 337.8 601C375.3 601 412.7 601 450.2 601C487.7 601 525.3 601 562.8 601C600.3 601 637.7 601 675.2 601C712.7 601 750.3 601 787.8 601C825.3 601 862.7 601 881.3 601L900 601L900 527L881.3 482C862.7 437 825.3 347 787.8 326C750.3 305 712.7 353 675.2 382C637.7 411 600.3 421 562.8 393C525.3 365 487.7 299 450.2 286C412.7 273 375.3 313 337.8 354C300.3 395 262.7 437 225.2 444C187.7 451 150.3 423 112.8 413C75.3 403 37.7 411 18.8 415L0 419Z" fill="#18181b"></path></svg>