
<svg id="visual" viewBox="0 0 900 600" width="900" height="600" xmlns="http://www.w3.org/2000/svg" xmlns:xlink="http://www.w3.org/1999/xlink" version="1.1"><path d="M0 393L21.5 399.2C43 405.3 86 417.7 128.8 424.8C171.7 432 214.3 434 257.2 435C300 436 343 436 385.8 433.2C428.7 430.3 471.3 424.7 514.2 429C557 433.3 600 447.7 642.8 442.3C685.7 437 728.3 412 771.2 404.3C814 396.7 857 406.3 878.5 411.2L900 416L900 601L878.5 601C857 601 814 601 771.2 601C728.3 601 685.7 601 642.8 601C600 601 557 601 514.2 601C471.3 601 428.7 601 385.8 601C343 601 300 601 257.2 601C214.3 601 171.7 601 128.8 601C86 601 43 601 21.5 601L0 601Z" fill="#fddd0e"></path><path d="M0 443L21.5 450.8C43 458.7 86 474.3 128.8 480.7C171.7 487 214.3 484 257.2 476.8C300 469.7 343 458.3 385.8 454.7C428.7 451 471.3 455 514.2 454.7C557 454.3 600 449.7 642.8 453.2C685.7 456.7 728.3 468.3 771.2 474.7C814 481 857 482 878.5 482.5L900 483L900 601L878.5 601C857 601 814 601 771.2 601C728.3 601 685.7 601 642.8 601C600 601 557 601 514.2 601C471.3 601 428.7 601 385.8 601C343 601 300 601 257.2 601C214.3 601 171.7 601 128.8 601C86 601 43 601 21.5 601L0 601Z" fill="#ffab00"></path><path d="M0 495L21.5 495.5C43 496 86 497 128.8 505.2C171.7 513.3 214.3 528.7 257.2 527.3C300 526 343 508 385.8 500C428.7 492 471.3 494 514.2 504.7C557 515.3 600 534.7 642.8 536.8C685.7 539 728.3 524 771.2 518.8C814 513.7 857 518.3 878.5 520.7L900 523L900 601L878.5 601C857 601 814 601 771.2 601C728.3 601 685.7 601 642.8 601C600 601 557 601 514.2 601C471.3 601 428.7 601 385.8 601C343 601 300 601 257.2 601C214.3 601 171.7 601 128.8 601C86 601 43 601 21.5 601L0 601Z" fill="#f7770f"></path></svg>