
<svg id="visual" viewBox="0 0 900 600" width="900" height="600" xmlns="http://www.w3.org/2000/svg" xmlns:xlink="http://www.w3.org/1999/xlink" version="1.1"><path d="M0 425L21.5 416.5C43 408 86 391 128.8 389.2C171.7 387.3 214.3 400.7 257.2 410.5C300 420.3 343 426.7 385.8 424.3C428.7 422 471.3 411 514.2 409C557 407 600 414 642.8 410C685.7 406 728.3 391 771.2 391.5C814 392 857 408 878.5 416L900 424L900 601L878.5 601C857 601 814 601 771.2 601C728.3 601 685.7 601 642.8 601C600 601 557 601 514.2 601C471.3 601 428.7 601 385.8 601C343 601 300 601 257.2 601C214.3 601 171.7 601 128.8 601C86 601 43 601 21.5 601L0 601Z" fill="#feeb72"></path><path d="M0 432L21.5 441.2C43 450.3 86 468.7 128.8 475C171.7 481.3 214.3 475.7 257.2 465.2C300 454.7 343 439.3 385.8 437.2C428.7 435 471.3 446 514.2 457C557 468 600 479 642.8 482.8C685.7 486.7 728.3 483.3 771.2 483.2C814 483 857 486 878.5 487.5L900 489L900 601L878.5 601C857 601 814 601 771.2 601C728.3 601 685.7 601 642.8 601C600 601 557 601 514.2 601C471.3 601 428.7 601 385.8 601C343 601 300 601 257.2 601C214.3 601 171.7 601 128.8 601C86 601 43 601 21.5 601L0 601Z" fill="#fde44c"></path><path d="M0 488L21.5 494C43 500 86 512 128.8 524.2C171.7 536.3 214.3 548.7 257.2 544.8C300 541 343 521 385.8 510C428.7 499 471.3 497 514.2 504.7C557 512.3 600 529.7 642.8 540.2C685.7 550.7 728.3 554.3 771.2 544.5C814 534.7 857 511.3 878.5 499.7L900 488L900 601L878.5 601C857 601 814 601 771.2 601C728.3 601 685.7 601 642.8 601C600 601 557 601 514.2 601C471.3 601 428.7 601 385.8 601C343 601 300 601 257.2 601C214.3 601 171.7 601 128.8 601C86 601 43 601 21.5 601L0 601Z" fill="#fddd0e"></path></svg>