<svg id="visual" viewBox="0 0 960 540" width="960" height="540" xmlns="http://www.w3.org/2000/svg" xmlns:xlink="http://www.w3.org/1999/xlink" version="1.1"><path d="M0 323L22.8 333.7C45.7 344.3 91.3 365.7 137 370.8C182.7 376 228.3 365 274 360.5C319.7 356 365.3 358 411.2 364.2C457 370.3 503 380.7 548.8 385C594.7 389.3 640.3 387.7 686 378.2C731.7 368.7 777.3 351.3 823 345.8C868.7 340.3 914.3 346.7 937.2 349.8L960 353L960 541L937.2 541C914.3 541 868.7 541 823 541C777.3 541 731.7 541 686 541C640.3 541 594.7 541 548.8 541C503 541 457 541 411.2 541C365.3 541 319.7 541 274 541C228.3 541 182.7 541 137 541C91.3 541 45.7 541 22.8 541L0 541Z" fill="#ffdd09"></path><path d="M0 432L22.8 425.3C45.7 418.7 91.3 405.3 137 395.8C182.7 386.3 228.3 380.7 274 387.5C319.7 394.3 365.3 413.7 411.2 418.8C457 424 503 415 548.8 409.5C594.7 404 640.3 402 686 403.2C731.7 404.3 777.3 408.7 823 405C868.7 401.3 914.3 389.7 937.2 383.8L960 378L960 541L937.2 541C914.3 541 868.7 541 823 541C777.3 541 731.7 541 686 541C640.3 541 594.7 541 548.8 541C503 541 457 541 411.2 541C365.3 541 319.7 541 274 541C228.3 541 182.7 541 137 541C91.3 541 45.7 541 22.8 541L0 541Z" fill="#ff9729"></path><path d="M0 473L22.8 470.2C45.7 467.3 91.3 461.7 137 454.3C182.7 447 228.3 438 274 434.8C319.7 431.7 365.3 434.3 411.2 435.5C457 436.7 503 436.3 548.8 442.2C594.7 448 640.3 460 686 459C731.7 458 777.3 444 823 440.7C868.7 437.3 914.3 444.7 937.2 448.3L960 452L960 541L937.2 541C914.3 541 868.7 541 823 541C777.3 541 731.7 541 686 541C640.3 541 594.7 541 548.8 541C503 541 457 541 411.2 541C365.3 541 319.7 541 274 541C228.3 541 182.7 541 137 541C91.3 541 45.7 541 22.8 541L0 541Z" fill="#f3574c"></path><path d="M0 495L22.8 496.5C45.7 498 91.3 501 137 503.3C182.7 505.7 228.3 507.3 274 503.3C319.7 499.3 365.3 489.7 411.2 489.3C457 489 503 498 548.8 494.7C594.7 491.3 640.3 475.7 686 472.8C731.7 470 777.3 480 823 486C868.7 492 914.3 494 937.2 495L960 496L960 541L937.2 541C914.3 541 868.7 541 823 541C777.3 541 731.7 541 686 541C640.3 541 594.7 541 548.8 541C503 541 457 541 411.2 541C365.3 541 319.7 541 274 541C228.3 541 182.7 541 137 541C91.3 541 45.7 541 22.8 541L0 541Z" fill="#c62368"></path></svg>